<?xml version="1.0" encoding="UTF-8" standalone="no"?>
<svg
   xmlns:dc="http://purl.org/dc/elements/1.1/"
   xmlns:cc="http://creativecommons.org/ns#"
   xmlns:rdf="http://www.w3.org/1999/02/22-rdf-syntax-ns#"
   xmlns:svg="http://www.w3.org/2000/svg"
   xmlns="http://www.w3.org/2000/svg"
   xmlns:sodipodi="http://sodipodi.sourceforge.net/DTD/sodipodi-0.dtd"
   xmlns:inkscape="http://www.inkscape.org/namespaces/inkscape"
   version="1.0"
   width="360.67001mm"
   height="133.24001mm"
   id="svg265"
   sodipodi:docname="pulse.svg"
   inkscape:version="1.0.1 (3bc2e813f5, 2020-09-07)">
  <metadata
     id="metadata269">
    <rdf:RDF>
      <cc:Work
         rdf:about="">
        <dc:format>image/svg+xml</dc:format>
        <dc:type
           rdf:resource="http://purl.org/dc/dcmitype/StillImage" />
        <dc:title></dc:title>
      </cc:Work>
    </rdf:RDF>
  </metadata>
  <sodipodi:namedview
     pagecolor="#ffffff"
     bordercolor="#666666"
     borderopacity="1"
     objecttolerance="10"
     gridtolerance="10"
     guidetolerance="10"
     inkscape:pageopacity="0"
     inkscape:pageshadow="2"
     inkscape:window-width="2560"
     inkscape:window-height="1361"
     id="namedview267"
     showgrid="false"
     inkscape:zoom="1.1505328"
     inkscape:cx="606.03726"
     inkscape:cy="220.74198"
     inkscape:window-x="-9"
     inkscape:window-y="-9"
     inkscape:window-maximized="1"
     inkscape:current-layer="svg265" />
  <defs
     id="defs3">
    <pattern
       id="EMFhbasepattern"
       patternUnits="userSpaceOnUse"
       width="6"
       height="6"
       x="0"
       y="0" />
  </defs>
  <path
     style="fill:none;stroke:#000000;stroke-width:0.88251966px;stroke-linecap:round;stroke-linejoin:round;stroke-miterlimit:4;stroke-dasharray:none;stroke-opacity:1;"
     d="  M 45.891024,477.44315   L 45.891024,485.38583  "
     id="path5" />
  <text
     xml:space="preserve"
     style="font-size:15.000000px;font-style:normal;font-variant:normal;font-weight:700;font-stretch:Normal;line-height:125.000000%;letter-spacing:0px;word-spacing:0px;fill:#000000;fill-opacity:1;stroke:none;font-family:Arial;text-align:start;text-anchor:start;"
     transform="matrix(1.000000,-0.000000,0.000000,1.000000,60.011339,485.385827)"
     x="-30.021973"
     y="13.579102"
     id="text11"><tspan
       sodipodi:role="line"
       x="-30.021973"
       y="13.579102"
       id="tspan9"><tspan
         dx="0.000000"
         dy="0.000000"
         style="fill:#000000;font-size:15.000000px;font-style:normal;font-variant:normal;font-weight:700;font-stretch:Normal;font-family:Arial;"
         id="tspan7">0ms</tspan></tspan></text>
  <path
     style="fill:none;stroke:#000000;stroke-width:0.88251966px;stroke-linecap:round;stroke-linejoin:round;stroke-miterlimit:4;stroke-dasharray:none;stroke-opacity:1;"
     d="  M 180.91654,477.44315   L 180.91654,485.38583  "
     id="path13" />
  <text
     xml:space="preserve"
     style="font-size:15.000000px;font-style:normal;font-variant:normal;font-weight:700;font-stretch:Normal;line-height:125.000000%;letter-spacing:0px;word-spacing:0px;fill:#000000;fill-opacity:1;stroke:none;font-family:Arial;text-align:start;text-anchor:start;"
     transform="matrix(1.000000,-0.000000,0.000000,1.000000,198.566929,485.385827)"
     x="-38.364258"
     y="13.579102"
     id="text19"><tspan
       sodipodi:role="line"
       x="-38.364258"
       y="13.579102"
       id="tspan17"><tspan
         dx="0.000000"
         dy="0.000000"
         style="fill:#000000;font-size:15.000000px;font-style:normal;font-variant:normal;font-weight:700;font-stretch:Normal;font-family:Arial;"
         id="tspan15">50ms</tspan></tspan></text>
  <path
     style="fill:none;stroke:#808080;stroke-width:0.88251966px;stroke-linecap:round;stroke-linejoin:round;stroke-miterlimit:4;stroke-dasharray:1,1;stroke-dashoffset:0;stroke-opacity:1;"
     d="  M 180.91654,477.44315   L 180.91654,256.81323  "
     id="path21" />
  <path
     style="fill:none;stroke:#000000;stroke-width:0.88251966px;stroke-linecap:round;stroke-linejoin:round;stroke-miterlimit:4;stroke-dasharray:none;stroke-opacity:1;"
     d="  M 315.94205,477.44315   L 315.94205,485.38583  "
     id="path23" />
  <text
     xml:space="preserve"
     style="font-size:15.000000px;font-style:normal;font-variant:normal;font-weight:700;font-stretch:Normal;line-height:125.000000%;letter-spacing:0px;word-spacing:0px;fill:#000000;fill-opacity:1;stroke:none;font-family:Arial;text-align:start;text-anchor:start;"
     transform="matrix(1.000000,-0.000000,0.000000,1.000000,338.005039,485.385827)"
     x="-46.706543"
     y="13.579102"
     id="text29"><tspan
       sodipodi:role="line"
       x="-46.706543"
       y="13.579102"
       id="tspan27"><tspan
         dx="0.000000"
         dy="0.000000"
         style="fill:#000000;font-size:15.000000px;font-style:normal;font-variant:normal;font-weight:700;font-stretch:Normal;font-family:Arial;"
         id="tspan25">100ms</tspan></tspan></text>
  <path
     style="fill:none;stroke:#808080;stroke-width:0.88251966px;stroke-linecap:round;stroke-linejoin:round;stroke-miterlimit:4;stroke-dasharray:1,1;stroke-dashoffset:0;stroke-opacity:1;"
     d="  M 315.94205,477.44315   L 315.94205,256.81323  "
     id="path31" />
  <path
     style="fill:none;stroke:#000000;stroke-width:0.88251966px;stroke-linecap:round;stroke-linejoin:round;stroke-miterlimit:4;stroke-dasharray:none;stroke-opacity:1;"
     d="  M 450.08504,477.44315   L 450.08504,485.38583  "
     id="path33" />
  <text
     xml:space="preserve"
     style="font-size:15.000000px;font-style:normal;font-variant:normal;font-weight:700;font-stretch:Normal;line-height:125.000000%;letter-spacing:0px;word-spacing:0px;fill:#000000;fill-opacity:1;stroke:none;font-family:Arial;text-align:start;text-anchor:start;"
     transform="matrix(1.000000,-0.000000,0.000000,1.000000,472.148031,485.385827)"
     x="-46.706543"
     y="13.579102"
     id="text39"><tspan
       sodipodi:role="line"
       x="-46.706543"
       y="13.579102"
       id="tspan37"><tspan
         dx="0.000000"
         dy="0.000000"
         style="fill:#000000;font-size:15.000000px;font-style:normal;font-variant:normal;font-weight:700;font-stretch:Normal;font-family:Arial;"
         id="tspan35">150ms</tspan></tspan></text>
  <path
     style="fill:none;stroke:#808080;stroke-width:0.88251966px;stroke-linecap:round;stroke-linejoin:round;stroke-miterlimit:4;stroke-dasharray:1,1;stroke-dashoffset:0;stroke-opacity:1;"
     d="  M 450.08504,477.44315   L 450.08504,256.81323  "
     id="path41" />
  <path
     style="fill:none;stroke:#000000;stroke-width:0.88251966px;stroke-linecap:round;stroke-linejoin:round;stroke-miterlimit:4;stroke-dasharray:none;stroke-opacity:1;"
     d="  M 585.11055,477.44315   L 585.11055,485.38583  "
     id="path43" />
  <text
     xml:space="preserve"
     style="font-size:15.000000px;font-style:normal;font-variant:normal;font-weight:700;font-stretch:Normal;line-height:125.000000%;letter-spacing:0px;word-spacing:0px;fill:#000000;fill-opacity:1;stroke:none;font-family:Arial;text-align:start;text-anchor:start;"
     transform="matrix(1.000000,-0.000000,0.000000,1.000000,607.173543,485.385827)"
     x="-46.706543"
     y="13.579102"
     id="text49"><tspan
       sodipodi:role="line"
       x="-46.706543"
       y="13.579102"
       id="tspan47"><tspan
         dx="0.000000"
         dy="0.000000"
         style="fill:#000000;font-size:15.000000px;font-style:normal;font-variant:normal;font-weight:700;font-stretch:Normal;font-family:Arial;"
         id="tspan45">200ms</tspan></tspan></text>
  <path
     style="fill:none;stroke:#808080;stroke-width:0.88251966px;stroke-linecap:round;stroke-linejoin:round;stroke-miterlimit:4;stroke-dasharray:1,1;stroke-dashoffset:0;stroke-opacity:1;"
     d="  M 585.11055,477.44315   L 585.11055,256.81323  "
     id="path51" />
  <path
     style="fill:none;stroke:#000000;stroke-width:0.88251966px;stroke-linecap:round;stroke-linejoin:round;stroke-miterlimit:4;stroke-dasharray:none;stroke-opacity:1;"
     d="  M 720.13606,477.44315   L 720.13606,485.38583  "
     id="path53" />
  <text
     xml:space="preserve"
     style="font-size:15.000000px;font-style:normal;font-variant:normal;font-weight:700;font-stretch:Normal;line-height:125.000000%;letter-spacing:0px;word-spacing:0px;fill:#000000;fill-opacity:1;stroke:none;font-family:Arial;text-align:start;text-anchor:start;"
     transform="matrix(1.000000,-0.000000,0.000000,1.000000,742.199055,485.385827)"
     x="-46.706543"
     y="13.579102"
     id="text59"><tspan
       sodipodi:role="line"
       x="-46.706543"
       y="13.579102"
       id="tspan57"><tspan
         dx="0.000000"
         dy="0.000000"
         style="fill:#000000;font-size:15.000000px;font-style:normal;font-variant:normal;font-weight:700;font-stretch:Normal;font-family:Arial;"
         id="tspan55">250ms</tspan></tspan></text>
  <path
     style="fill:none;stroke:#808080;stroke-width:0.88251966px;stroke-linecap:round;stroke-linejoin:round;stroke-miterlimit:4;stroke-dasharray:1,1;stroke-dashoffset:0;stroke-opacity:1;"
     d="  M 720.13606,477.44315   L 720.13606,256.81323  "
     id="path61" />
  <path
     style="fill:none;stroke:#000000;stroke-width:0.88251966px;stroke-linecap:round;stroke-linejoin:round;stroke-miterlimit:4;stroke-dasharray:none;stroke-opacity:1;"
     d="  M 855.16157,477.44315   L 855.16157,485.38583  "
     id="path63" />
  <text
     xml:space="preserve"
     style="font-size:15.000000px;font-style:normal;font-variant:normal;font-weight:700;font-stretch:Normal;line-height:125.000000%;letter-spacing:0px;word-spacing:0px;fill:#000000;fill-opacity:1;stroke:none;font-family:Arial;text-align:start;text-anchor:start;"
     transform="matrix(1.000000,-0.000000,0.000000,1.000000,877.224567,485.385827)"
     x="-46.706543"
     y="13.579102"
     id="text69"><tspan
       sodipodi:role="line"
       x="-46.706543"
       y="13.579102"
       id="tspan67"><tspan
         dx="0.000000"
         dy="0.000000"
         style="fill:#000000;font-size:15.000000px;font-style:normal;font-variant:normal;font-weight:700;font-stretch:Normal;font-family:Arial;"
         id="tspan65">300ms</tspan></tspan></text>
  <path
     style="fill:none;stroke:#808080;stroke-width:0.88251966px;stroke-linecap:round;stroke-linejoin:round;stroke-miterlimit:4;stroke-dasharray:1,1;stroke-dashoffset:0;stroke-opacity:1;"
     d="  M 855.16157,477.44315   L 855.16157,256.81323  "
     id="path71" />
  <path
     style="fill:none;stroke:#000000;stroke-width:0.88251966px;stroke-linecap:round;stroke-linejoin:round;stroke-miterlimit:4;stroke-dasharray:none;stroke-opacity:1;"
     d="  M 990.18709,477.44315   L 990.18709,485.38583  "
     id="path73" />
  <text
     xml:space="preserve"
     style="font-size:15.000000px;font-style:normal;font-variant:normal;font-weight:700;font-stretch:Normal;line-height:125.000000%;letter-spacing:0px;word-spacing:0px;fill:#000000;fill-opacity:1;stroke:none;font-family:Arial;text-align:start;text-anchor:start;"
     transform="matrix(1.000000,-0.000000,0.000000,1.000000,1012.250079,485.385827)"
     x="-46.706543"
     y="13.579102"
     id="text79"><tspan
       sodipodi:role="line"
       x="-46.706543"
       y="13.579102"
       id="tspan77"><tspan
         dx="0.000000"
         dy="0.000000"
         style="fill:#000000;font-size:15.000000px;font-style:normal;font-variant:normal;font-weight:700;font-stretch:Normal;font-family:Arial;"
         id="tspan75">350ms</tspan></tspan></text>
  <path
     style="fill:none;stroke:#808080;stroke-width:0.88251966px;stroke-linecap:round;stroke-linejoin:round;stroke-miterlimit:4;stroke-dasharray:1,1;stroke-dashoffset:0;stroke-opacity:1;"
     d="  M 990.18709,477.44315   L 990.18709,256.81323  "
     id="path81" />
  <path
     style="fill:none;stroke:#000000;stroke-width:0.88251966px;stroke-linecap:round;stroke-linejoin:round;stroke-miterlimit:4;stroke-dasharray:none;stroke-opacity:1;"
     d="  M 1125.2126,477.44315   L 1125.2126,485.38583  "
     id="path83" />
  <text
     xml:space="preserve"
     style="font-size:15.000000px;font-style:normal;font-variant:normal;font-weight:700;font-stretch:Normal;line-height:125.000000%;letter-spacing:0px;word-spacing:0px;fill:#000000;fill-opacity:1;stroke:none;font-family:Arial;text-align:start;text-anchor:start;"
     transform="matrix(1.000000,-0.000000,0.000000,1.000000,1147.275591,485.385827)"
     x="-46.706543"
     y="13.579102"
     id="text89"><tspan
       sodipodi:role="line"
       x="-46.706543"
       y="13.579102"
       id="tspan87"><tspan
         dx="0.000000"
         dy="0.000000"
         style="fill:#000000;font-size:15.000000px;font-style:normal;font-variant:normal;font-weight:700;font-stretch:Normal;font-family:Arial;"
         id="tspan85">400ms</tspan></tspan></text>
  <path
     style="fill:none;stroke:#808080;stroke-width:0.88251966px;stroke-linecap:round;stroke-linejoin:round;stroke-miterlimit:4;stroke-dasharray:1,1;stroke-dashoffset:0;stroke-opacity:1;"
     d="  M 1125.2126,477.44315   L 1125.2126,256.81323  "
     id="path91" />
  <path
     style="fill:none;stroke:#000000;stroke-width:0.88251966px;stroke-linecap:round;stroke-linejoin:round;stroke-miterlimit:4;stroke-dasharray:none;stroke-opacity:1;"
     d="  M 1259.3556,477.44315   L 1259.3556,485.38583  "
     id="path93" />
  <text
     xml:space="preserve"
     style="font-size:15.000000px;font-style:normal;font-variant:normal;font-weight:700;font-stretch:Normal;line-height:125.000000%;letter-spacing:0px;word-spacing:0px;fill:#000000;fill-opacity:1;stroke:none;font-family:Arial;text-align:start;text-anchor:start;"
     transform="matrix(1.000000,-0.000000,0.000000,1.000000,1281.418583,485.385827)"
     x="-46.706543"
     y="13.579102"
     id="text99"><tspan
       sodipodi:role="line"
       x="-46.706543"
       y="13.579102"
       id="tspan97"><tspan
         dx="0.000000"
         dy="0.000000"
         style="fill:#000000;font-size:15.000000px;font-style:normal;font-variant:normal;font-weight:700;font-stretch:Normal;font-family:Arial;"
         id="tspan95">450ms</tspan></tspan></text>
  <path
     style="fill:none;stroke:#808080;stroke-width:0.88251966px;stroke-linecap:round;stroke-linejoin:round;stroke-miterlimit:4;stroke-dasharray:1,1;stroke-dashoffset:0;stroke-opacity:1;"
     d="  M 1259.3556,477.44315   L 1259.3556,256.81323  "
     id="path101" />
  <text
     xml:space="preserve"
     style="font-size:15.000000px;font-style:normal;font-variant:normal;font-weight:700;font-stretch:Normal;line-height:125.000000%;letter-spacing:0px;word-spacing:0px;fill:#000000;fill-opacity:1;stroke:none;font-family:Arial;text-align:start;text-anchor:start;"
     transform="matrix(1.000000,-0.000000,0.000000,1.000000,37.948346,469.500472)"
     x="-39.199219"
     y="13.579102"
     id="text107"><tspan
       sodipodi:role="line"
       x="-39.199219"
       y="13.579102"
       id="tspan105"><tspan
         dx="0.000000"
         dy="0.000000"
         style="fill:#000000;font-size:15.000000px;font-style:normal;font-variant:normal;font-weight:700;font-stretch:Normal;font-family:Arial;"
         id="tspan103">5.00V</tspan></tspan></text>
  <path
     style="fill:none;stroke:#000000;stroke-width:0.88251966px;stroke-linecap:round;stroke-linejoin:round;stroke-miterlimit:4;stroke-dasharray:none;stroke-opacity:1;"
     d="  M 45.891024,477.44315   L 37.948346,477.44315  "
     id="path109" />
  <text
     xml:space="preserve"
     style="font-size:15.000000px;font-style:normal;font-variant:normal;font-weight:700;font-stretch:Normal;line-height:125.000000%;letter-spacing:0px;word-spacing:0px;fill:#000000;fill-opacity:1;stroke:none;font-family:Arial;text-align:start;text-anchor:start;"
     transform="matrix(1.000000,-0.000000,0.000000,1.000000,37.948346,429.787087)"
     x="-39.199219"
     y="13.579102"
     id="text115"><tspan
       sodipodi:role="line"
       x="-39.199219"
       y="13.579102"
       id="tspan113"><tspan
         dx="0.000000"
         dy="0.000000"
         style="fill:#000000;font-size:15.000000px;font-style:normal;font-variant:normal;font-weight:700;font-stretch:Normal;font-family:Arial;"
         id="tspan111">5.08V</tspan></tspan></text>
  <path
     style="fill:none;stroke:#000000;stroke-width:0.88251966px;stroke-linecap:round;stroke-linejoin:round;stroke-miterlimit:4;stroke-dasharray:none;stroke-opacity:1;"
     d="  M 45.891024,437.72976   L 37.948346,437.72976  "
     id="path117" />
  <path
     style="fill:none;stroke:#808080;stroke-width:0.88251966px;stroke-linecap:round;stroke-linejoin:round;stroke-miterlimit:4;stroke-dasharray:1,1;stroke-dashoffset:0;stroke-opacity:1;"
     d="  M 45.891024,437.72976   L 1340.5474,437.72976  "
     id="path119" />
  <text
     xml:space="preserve"
     style="font-size:15.000000px;font-style:normal;font-variant:normal;font-weight:700;font-stretch:Normal;line-height:125.000000%;letter-spacing:0px;word-spacing:0px;fill:#000000;fill-opacity:1;stroke:none;font-family:Arial;text-align:start;text-anchor:start;"
     transform="matrix(1.000000,-0.000000,0.000000,1.000000,37.948346,389.191181)"
     x="-39.199219"
     y="13.579102"
     id="text125"><tspan
       sodipodi:role="line"
       x="-39.199219"
       y="13.579102"
       id="tspan123"><tspan
         dx="0.000000"
         dy="0.000000"
         style="fill:#000000;font-size:15.000000px;font-style:normal;font-variant:normal;font-weight:700;font-stretch:Normal;font-family:Arial;"
         id="tspan121">5.16V</tspan></tspan></text>
  <path
     style="fill:none;stroke:#000000;stroke-width:0.88251966px;stroke-linecap:round;stroke-linejoin:round;stroke-miterlimit:4;stroke-dasharray:none;stroke-opacity:1;"
     d="  M 45.891024,397.13386   L 37.948346,397.13386  "
     id="path127" />
  <path
     style="fill:none;stroke:#808080;stroke-width:0.88251966px;stroke-linecap:round;stroke-linejoin:round;stroke-miterlimit:4;stroke-dasharray:1,1;stroke-dashoffset:0;stroke-opacity:1;"
     d="  M 45.891024,397.13386   L 1340.5474,397.13386  "
     id="path129" />
  <text
     xml:space="preserve"
     style="font-size:15.000000px;font-style:normal;font-variant:normal;font-weight:700;font-stretch:Normal;line-height:125.000000%;letter-spacing:0px;word-spacing:0px;fill:#000000;fill-opacity:1;stroke:none;font-family:Arial;text-align:start;text-anchor:start;"
     transform="matrix(1.000000,-0.000000,0.000000,1.000000,37.948346,349.477795)"
     x="-39.199219"
     y="13.579102"
     id="text135"><tspan
       sodipodi:role="line"
       x="-39.199219"
       y="13.579102"
       id="tspan133"><tspan
         dx="0.000000"
         dy="0.000000"
         style="fill:#000000;font-size:15.000000px;font-style:normal;font-variant:normal;font-weight:700;font-stretch:Normal;font-family:Arial;"
         id="tspan131">5.24V</tspan></tspan></text>
  <path
     style="fill:none;stroke:#000000;stroke-width:0.88251966px;stroke-linecap:round;stroke-linejoin:round;stroke-miterlimit:4;stroke-dasharray:none;stroke-opacity:1;"
     d="  M 45.891024,357.42047   L 37.948346,357.42047  "
     id="path137" />
  <path
     style="fill:none;stroke:#808080;stroke-width:0.88251966px;stroke-linecap:round;stroke-linejoin:round;stroke-miterlimit:4;stroke-dasharray:1,1;stroke-dashoffset:0;stroke-opacity:1;"
     d="  M 45.891024,357.42047   L 1340.5474,357.42047  "
     id="path139" />
  <text
     xml:space="preserve"
     style="font-size:15.000000px;font-style:normal;font-variant:normal;font-weight:700;font-stretch:Normal;line-height:125.000000%;letter-spacing:0px;word-spacing:0px;fill:#000000;fill-opacity:1;stroke:none;font-family:Arial;text-align:start;text-anchor:start;"
     transform="matrix(1.000000,-0.000000,0.000000,1.000000,37.948346,308.881890)"
     x="-39.199219"
     y="13.579102"
     id="text145"><tspan
       sodipodi:role="line"
       x="-39.199219"
       y="13.579102"
       id="tspan143"><tspan
         dx="0.000000"
         dy="0.000000"
         style="fill:#000000;font-size:15.000000px;font-style:normal;font-variant:normal;font-weight:700;font-stretch:Normal;font-family:Arial;"
         id="tspan141">5.32V</tspan></tspan></text>
  <path
     style="fill:none;stroke:#000000;stroke-width:0.88251966px;stroke-linecap:round;stroke-linejoin:round;stroke-miterlimit:4;stroke-dasharray:none;stroke-opacity:1;"
     d="  M 45.891024,316.82457   L 37.948346,316.82457  "
     id="path147" />
  <path
     style="fill:none;stroke:#808080;stroke-width:0.88251966px;stroke-linecap:round;stroke-linejoin:round;stroke-miterlimit:4;stroke-dasharray:1,1;stroke-dashoffset:0;stroke-opacity:1;"
     d="  M 45.891024,316.82457   L 1340.5474,316.82457  "
     id="path149" />
  <text
     xml:space="preserve"
     style="font-size:15.000000px;font-style:normal;font-variant:normal;font-weight:700;font-stretch:Normal;line-height:125.000000%;letter-spacing:0px;word-spacing:0px;fill:#000000;fill-opacity:1;stroke:none;font-family:Arial;text-align:start;text-anchor:start;"
     transform="matrix(1.000000,-0.000000,0.000000,1.000000,37.948346,269.168504)"
     x="-39.199219"
     y="13.579102"
     id="text155"><tspan
       sodipodi:role="line"
       x="-39.199219"
       y="13.579102"
       id="tspan153"><tspan
         dx="0.000000"
         dy="0.000000"
         style="fill:#000000;font-size:15.000000px;font-style:normal;font-variant:normal;font-weight:700;font-stretch:Normal;font-family:Arial;"
         id="tspan151">5.40V</tspan></tspan></text>
  <path
     style="fill:none;stroke:#000000;stroke-width:0.88251966px;stroke-linecap:round;stroke-linejoin:round;stroke-miterlimit:4;stroke-dasharray:none;stroke-opacity:1;"
     d="  M 45.891024,277.11118   L 37.948346,277.11118  "
     id="path157" />
  <path
     style="fill:none;stroke:#808080;stroke-width:0.88251966px;stroke-linecap:round;stroke-linejoin:round;stroke-miterlimit:4;stroke-dasharray:1,1;stroke-dashoffset:0;stroke-opacity:1;"
     d="  M 45.891024,277.11118   L 1340.5474,277.11118  "
     id="path159" />
  <path
     style="fill:none;stroke:#000000;stroke-width:0.88251966px;stroke-linecap:round;stroke-linejoin:round;stroke-miterlimit:4;stroke-dasharray:none;stroke-opacity:1;"
     d="  M 45.891024,256.81323   L 1340.5474,256.81323   L 1340.5474,477.44315   L 45.891024,477.44315   L 45.891024,256.81323  "
     id="path161" />
  <path
     style="fill:none;stroke:#808080;stroke-width:0.88251966px;stroke-linecap:round;stroke-linejoin:round;stroke-miterlimit:4;stroke-dasharray:1,1;stroke-dashoffset:0;stroke-opacity:1;"
     d="  M 180.91654,235.63276   L 180.91654,18.532913  "
     id="path163" />
  <path
     style="fill:none;stroke:#808080;stroke-width:0.88251966px;stroke-linecap:round;stroke-linejoin:round;stroke-miterlimit:4;stroke-dasharray:1,1;stroke-dashoffset:0;stroke-opacity:1;"
     d="  M 315.94205,235.63276   L 315.94205,18.532913  "
     id="path165" />
  <path
     style="fill:none;stroke:#808080;stroke-width:0.88251966px;stroke-linecap:round;stroke-linejoin:round;stroke-miterlimit:4;stroke-dasharray:1,1;stroke-dashoffset:0;stroke-opacity:1;"
     d="  M 450.08504,235.63276   L 450.08504,18.532913  "
     id="path167" />
  <path
     style="fill:none;stroke:#808080;stroke-width:0.88251966px;stroke-linecap:round;stroke-linejoin:round;stroke-miterlimit:4;stroke-dasharray:1,1;stroke-dashoffset:0;stroke-opacity:1;"
     d="  M 585.11055,235.63276   L 585.11055,18.532913  "
     id="path169" />
  <path
     style="fill:none;stroke:#808080;stroke-width:0.88251966px;stroke-linecap:round;stroke-linejoin:round;stroke-miterlimit:4;stroke-dasharray:1,1;stroke-dashoffset:0;stroke-opacity:1;"
     d="  M 720.13606,235.63276   L 720.13606,18.532913  "
     id="path171" />
  <path
     style="fill:none;stroke:#808080;stroke-width:0.88251966px;stroke-linecap:round;stroke-linejoin:round;stroke-miterlimit:4;stroke-dasharray:1,1;stroke-dashoffset:0;stroke-opacity:1;"
     d="  M 855.16157,235.63276   L 855.16157,18.532913  "
     id="path173" />
  <path
     style="fill:none;stroke:#808080;stroke-width:0.88251966px;stroke-linecap:round;stroke-linejoin:round;stroke-miterlimit:4;stroke-dasharray:1,1;stroke-dashoffset:0;stroke-opacity:1;"
     d="  M 990.18709,235.63276   L 990.18709,18.532913  "
     id="path175" />
  <path
     style="fill:none;stroke:#808080;stroke-width:0.88251966px;stroke-linecap:round;stroke-linejoin:round;stroke-miterlimit:4;stroke-dasharray:1,1;stroke-dashoffset:0;stroke-opacity:1;"
     d="  M 1125.2126,235.63276   L 1125.2126,18.532913  "
     id="path177" />
  <path
     style="fill:none;stroke:#808080;stroke-width:0.88251966px;stroke-linecap:round;stroke-linejoin:round;stroke-miterlimit:4;stroke-dasharray:1,1;stroke-dashoffset:0;stroke-opacity:1;"
     d="  M 1259.3556,235.63276   L 1259.3556,18.532913  "
     id="path179" />
  <text
     xml:space="preserve"
     style="font-size:15.000000px;font-style:normal;font-variant:normal;font-weight:700;font-stretch:Normal;line-height:125.000000%;letter-spacing:0px;word-spacing:0px;fill:#000000;fill-opacity:1;stroke:none;font-family:Arial;text-align:start;text-anchor:start;"
     transform="matrix(1.000000,-0.000000,0.000000,1.000000,37.948346,227.690079)"
     x="-38.371582"
     y="13.579102"
     id="text185"><tspan
       sodipodi:role="line"
       x="-38.371582"
       y="13.579102"
       id="tspan183"><tspan
         dx="0.000000"
         dy="0.000000"
         style="fill:#000000;font-size:15.000000px;font-style:normal;font-variant:normal;font-weight:700;font-stretch:Normal;font-family:Arial;"
         id="tspan181">11.8V</tspan></tspan></text>
  <path
     style="fill:none;stroke:#000000;stroke-width:0.88251966px;stroke-linecap:round;stroke-linejoin:round;stroke-miterlimit:4;stroke-dasharray:none;stroke-opacity:1;"
     d="  M 45.891024,235.63276   L 37.948346,235.63276  "
     id="path187" />
  <text
     xml:space="preserve"
     style="font-size:15.000000px;font-style:normal;font-variant:normal;font-weight:700;font-stretch:Normal;line-height:125.000000%;letter-spacing:0px;word-spacing:0px;fill:#000000;fill-opacity:1;stroke:none;font-family:Arial;text-align:start;text-anchor:start;"
     transform="matrix(1.000000,-0.000000,0.000000,1.000000,37.948346,191.506772)"
     x="-39.199219"
     y="13.579102"
     id="text193"><tspan
       sodipodi:role="line"
       x="-39.199219"
       y="13.579102"
       id="tspan191"><tspan
         dx="0.000000"
         dy="0.000000"
         style="fill:#000000;font-size:15.000000px;font-style:normal;font-variant:normal;font-weight:700;font-stretch:Normal;font-family:Arial;"
         id="tspan189">12.2V</tspan></tspan></text>
  <path
     style="fill:none;stroke:#000000;stroke-width:0.88251966px;stroke-linecap:round;stroke-linejoin:round;stroke-miterlimit:4;stroke-dasharray:none;stroke-opacity:1;"
     d="  M 45.891024,199.44945   L 37.948346,199.44945  "
     id="path195" />
  <path
     style="fill:none;stroke:#808080;stroke-width:0.88251966px;stroke-linecap:round;stroke-linejoin:round;stroke-miterlimit:4;stroke-dasharray:1,1;stroke-dashoffset:0;stroke-opacity:1;"
     d="  M 45.891024,199.44945   L 1340.5474,199.44945  "
     id="path197" />
  <text
     xml:space="preserve"
     style="font-size:15.000000px;font-style:normal;font-variant:normal;font-weight:700;font-stretch:Normal;line-height:125.000000%;letter-spacing:0px;word-spacing:0px;fill:#000000;fill-opacity:1;stroke:none;font-family:Arial;text-align:start;text-anchor:start;"
     transform="matrix(1.000000,-0.000000,0.000000,1.000000,37.948346,155.323465)"
     x="-39.199219"
     y="13.579102"
     id="text203"><tspan
       sodipodi:role="line"
       x="-39.199219"
       y="13.579102"
       id="tspan201"><tspan
         dx="0.000000"
         dy="0.000000"
         style="fill:#000000;font-size:15.000000px;font-style:normal;font-variant:normal;font-weight:700;font-stretch:Normal;font-family:Arial;"
         id="tspan199">12.6V</tspan></tspan></text>
  <path
     style="fill:none;stroke:#000000;stroke-width:0.88251966px;stroke-linecap:round;stroke-linejoin:round;stroke-miterlimit:4;stroke-dasharray:none;stroke-opacity:1;"
     d="  M 45.891024,163.26614   L 37.948346,163.26614  "
     id="path205" />
  <path
     style="fill:none;stroke:#808080;stroke-width:0.88251966px;stroke-linecap:round;stroke-linejoin:round;stroke-miterlimit:4;stroke-dasharray:1,1;stroke-dashoffset:0;stroke-opacity:1;"
     d="  M 45.891024,163.26614   L 1340.5474,163.26614  "
     id="path207" />
  <text
     xml:space="preserve"
     style="font-size:15.000000px;font-style:normal;font-variant:normal;font-weight:700;font-stretch:Normal;line-height:125.000000%;letter-spacing:0px;word-spacing:0px;fill:#000000;fill-opacity:1;stroke:none;font-family:Arial;text-align:start;text-anchor:start;"
     transform="matrix(1.000000,-0.000000,0.000000,1.000000,37.948346,119.140157)"
     x="-39.199219"
     y="13.579102"
     id="text213"><tspan
       sodipodi:role="line"
       x="-39.199219"
       y="13.579102"
       id="tspan211"><tspan
         dx="0.000000"
         dy="0.000000"
         style="fill:#000000;font-size:15.000000px;font-style:normal;font-variant:normal;font-weight:700;font-stretch:Normal;font-family:Arial;"
         id="tspan209">13.0V</tspan></tspan></text>
  <path
     style="fill:none;stroke:#000000;stroke-width:0.88251966px;stroke-linecap:round;stroke-linejoin:round;stroke-miterlimit:4;stroke-dasharray:none;stroke-opacity:1;"
     d="  M 45.891024,127.08283   L 37.948346,127.08283  "
     id="path215" />
  <path
     style="fill:none;stroke:#808080;stroke-width:0.88251966px;stroke-linecap:round;stroke-linejoin:round;stroke-miterlimit:4;stroke-dasharray:1,1;stroke-dashoffset:0;stroke-opacity:1;"
     d="  M 45.891024,127.08283   L 1340.5474,127.08283  "
     id="path217" />
  <text
     xml:space="preserve"
     style="font-size:15.000000px;font-style:normal;font-variant:normal;font-weight:700;font-stretch:Normal;line-height:125.000000%;letter-spacing:0px;word-spacing:0px;fill:#000000;fill-opacity:1;stroke:none;font-family:Arial;text-align:start;text-anchor:start;"
     transform="matrix(1.000000,-0.000000,0.000000,1.000000,37.948346,82.956850)"
     x="-39.199219"
     y="13.579102"
     id="text223"><tspan
       sodipodi:role="line"
       x="-39.199219"
       y="13.579102"
       id="tspan221"><tspan
         dx="0.000000"
         dy="0.000000"
         style="fill:#000000;font-size:15.000000px;font-style:normal;font-variant:normal;font-weight:700;font-stretch:Normal;font-family:Arial;"
         id="tspan219">13.4V</tspan></tspan></text>
  <path
     style="fill:none;stroke:#000000;stroke-width:0.88251966px;stroke-linecap:round;stroke-linejoin:round;stroke-miterlimit:4;stroke-dasharray:none;stroke-opacity:1;"
     d="  M 45.891024,90.899528   L 37.948346,90.899528  "
     id="path225" />
  <path
     style="fill:none;stroke:#808080;stroke-width:0.88251966px;stroke-linecap:round;stroke-linejoin:round;stroke-miterlimit:4;stroke-dasharray:1,1;stroke-dashoffset:0;stroke-opacity:1;"
     d="  M 45.891024,90.899528   L 1340.5474,90.899528  "
     id="path227" />
  <text
     xml:space="preserve"
     style="font-size:15.000000px;font-style:normal;font-variant:normal;font-weight:700;font-stretch:Normal;line-height:125.000000%;letter-spacing:0px;word-spacing:0px;fill:#000000;fill-opacity:1;stroke:none;font-family:Arial;text-align:start;text-anchor:start;"
     transform="matrix(1.000000,-0.000000,0.000000,1.000000,37.948346,46.773543)"
     x="-39.199219"
     y="13.579102"
     id="text233"><tspan
       sodipodi:role="line"
       x="-39.199219"
       y="13.579102"
       id="tspan231"><tspan
         dx="0.000000"
         dy="0.000000"
         style="fill:#000000;font-size:15.000000px;font-style:normal;font-variant:normal;font-weight:700;font-stretch:Normal;font-family:Arial;"
         id="tspan229">13.8V</tspan></tspan></text>
  <path
     style="fill:none;stroke:#000000;stroke-width:0.88251966px;stroke-linecap:round;stroke-linejoin:round;stroke-miterlimit:4;stroke-dasharray:none;stroke-opacity:1;"
     d="  M 45.891024,54.71622   L 37.948346,54.71622  "
     id="path235" />
  <path
     style="fill:none;stroke:#808080;stroke-width:0.88251966px;stroke-linecap:round;stroke-linejoin:round;stroke-miterlimit:4;stroke-dasharray:1,1;stroke-dashoffset:0;stroke-opacity:1;"
     d="  M 45.891024,54.71622   L 1340.5474,54.71622  "
     id="path237" />
  <text
     xml:space="preserve"
     style="font-size:15.000000px;font-style:normal;font-variant:normal;font-weight:700;font-stretch:Normal;line-height:125.000000%;letter-spacing:0px;word-spacing:0px;fill:#000000;fill-opacity:1;stroke:none;font-family:Arial;text-align:start;text-anchor:start;"
     transform="matrix(1.000000,-0.000000,0.000000,1.000000,37.948346,10.590236)"
     x="-39.199219"
     y="13.579102"
     id="text243"><tspan
       sodipodi:role="line"
       x="-39.199219"
       y="13.579102"
       id="tspan241"><tspan
         dx="0.000000"
         dy="0.000000"
         style="fill:#000000;font-size:15.000000px;font-style:normal;font-variant:normal;font-weight:700;font-stretch:Normal;font-family:Arial;"
         id="tspan239">14.2V</tspan></tspan></text>
  <path
     style="fill:none;stroke:#000000;stroke-width:0.88251966px;stroke-linecap:round;stroke-linejoin:round;stroke-miterlimit:4;stroke-dasharray:none;stroke-opacity:1;"
     d="  M 45.891024,18.532913   L 37.948346,18.532913  "
     id="path245" />
  <path
     style="fill:none;stroke:#000000;stroke-width:0.88251966px;stroke-linecap:round;stroke-linejoin:round;stroke-miterlimit:4;stroke-dasharray:none;stroke-opacity:1;"
     d="  M 45.891024,18.532913   L 1340.5474,18.532913   L 1340.5474,235.63276   L 45.891024,235.63276   L 45.891024,18.532913  "
     id="path247" />
  <text
     xml:space="preserve"
     style="font-size:15.000000px;font-style:normal;font-variant:normal;font-weight:700;font-stretch:Normal;line-height:125.000000%;letter-spacing:0px;word-spacing:0px;fill:#000000;fill-opacity:1;stroke:none;font-family:Arial;text-align:start;text-anchor:start;"
     transform="matrix(1.000000,-0.000000,0.000000,1.000000,692.777953,238.280315)"
     x="-30.410156"
     y="13.579102"
     id="text253"><tspan
       sodipodi:role="line"
       x="-30.410156"
       y="13.579102"
       id="tspan251"><tspan
         dx="0.000000"
         dy="0.000000"
         style="fill:#000000;font-size:15.000000px;font-style:normal;font-variant:normal;font-weight:700;font-stretch:Normal;font-family:Arial;"
         id="tspan249">V(u_out)</tspan></tspan></text>
  <path
     style="fill:none;stroke:#008000;stroke-width:1.683;stroke-linecap:round;stroke-linejoin:round;stroke-miterlimit:4;stroke-dasharray:none;stroke-opacity:1"
     d="  M 45.891024,439.4948   L 45.891024,437.72976   L 45.891024,435.96472   L 45.891024,432.43465   L 45.891024,428.02205   L 45.891024,422.72693   L 45.891024,414.78425   L 45.891024,406.84157   L 45.891024,398.8989   L 45.891024,389.19118   L 45.891024,375.07087   L 45.891024,360.06803   L 45.891024,337.12252   L 45.891024,304.46929   L 45.891024,284.17134   L 45.891024,268.28598   L 45.891024,270.05102   L 45.891024,272.69858   L 45.891024,274.46362   L 45.891024,277.11118   L 45.891024,279.75874   L 45.891024,283.28882   L 45.891024,285.93638   L 45.891024,288.58394   L 45.891024,291.2315   L 45.891024,293.87906   L 45.891024,298.29165   L 45.891024,302.70425   L 45.891024,310.64693   L 45.891024,319.47213   L 45.891024,331.8274   L 45.891024,346.83024   L 45.891024,364.48063   L 45.891024,377.71843   L 45.891024,385.6611   L 45.891024,390.0737   L 45.891024,392.72126   L 45.891024,394.4863   L 45.891024,396.25134   L 45.891024,398.01638   L 45.891024,400.66394   L 45.891024,406.84157   L 45.891024,414.78425   L 45.891024,423.60945   L 45.891024,425.37449   L 45.891024,427.13953   L 45.891024,430.66961   L 45.891024,434.19969   L 45.891024,439.4948   L 45.891024,448.32   L 45.891024,458.02772   L 45.891024,461.5578   L 45.891024,464.20535   L 45.891024,465.97039   L 45.891024,467.73543   L 45.891024,465.08787   L 45.891024,457.1452   L 45.891024,443.02488   L 45.891024,439.4948   L 45.891024,435.96472   L 45.891024,434.19969   L 45.891024,432.43465   L 45.891024,434.19969   L 45.891024,438.61228   L 45.891024,442.14236   L 45.891024,443.9074   L 46.773543,441.25984   L 46.773543,438.61228   L 46.773543,440.37732   L 46.773543,438.61228   L 46.773543,440.37732   L 48.538583,439.4948   L 50.303622,439.4948   L 52.068661,439.4948   L 53.833701,439.4948   L 56.48126,439.4948   L 59.128819,439.4948   L 60.893858,439.4948   L 62.658898,439.4948   L 65.306457,439.4948   L 67.954016,439.4948   L 70.601575,439.4948   L 72.366614,439.4948   L 74.131654,439.4948   L 76.779213,439.4948   L 79.426772,439.4948   L 81.191811,439.4948   L 82.95685,439.4948   L 85.604409,439.4948   L 88.251969,439.4948   L 90.017008,439.4948   L 91.782047,439.4948   L 94.429606,439.4948   L 97.077165,439.4948   L 98.842205,439.4948   L 100.60724,439.4948   L 103.2548,439.4948   L 105.90236,439.4948   L 107.6674,439.4948   L 109.43244,439.4948   L 112.08,439.4948   L 114.72756,439.4948   L 117.37512,439.4948   L 119.14016,439.4948   L 120.9052,439.4948   L 123.55276,439.4948   L 126.20031,439.4948   L 127.96535,439.4948   L 129.73039,439.4948   L 132.37795,439.4948   L 135.02551,439.4948   L 136.79055,439.4948   L 138.55559,439.4948   L 141.20315,439.4948   L 143.85071,439.4948   L 145.61575,439.4948   L 147.38079,439.4948   L 150.02835,439.4948   L 152.67591,439.4948   L 155.32346,439.4948   L 157.0885,439.4948   L 158.85354,439.4948   L 161.5011,439.4948   L 164.14866,439.4948   L 165.9137,439.4948   L 167.67874,439.4948   L 170.3263,439.4948   L 172.97386,439.4948   L 174.7389,439.4948   L 176.50394,439.4948   L 179.1515,439.4948   L 181.79906,439.4948   L 183.56409,439.4948   L 185.32913,439.4948   L 187.97669,439.4948   L 190.62425,439.4948   L 192.38929,439.4948   L 194.15433,439.4948   L 196.80189,439.4948   L 199.44945,439.4948   L 202.09701,439.4948   L 203.86205,439.4948   L 205.62709,439.4948   L 208.27465,439.4948   L 210.9222,439.4948   L 212.68724,439.4948   L 214.45228,439.4948   L 217.98236,439.4948   L 219.7474,439.4948   L 221.51244,439.4948   L 223.27748,439.4948   L 225.92504,439.4948   L 228.5726,439.4948   L 230.33764,439.4948   L 232.10268,439.4948   L 234.75024,439.4948   L 237.3978,439.4948   L 239.16283,439.4948   L 240.92787,439.4948   L 243.57543,439.4948   L 245.34047,439.4948   L 247.10551,439.4948   L 248.87055,439.4948   L 250.63559,439.4948   L 252.40063,439.4948   L 255.04819,439.4948   L 257.69575,439.4948   L 259.46079,439.4948   L 261.22583,439.4948   L 263.87339,439.4948   L 266.52094,439.4948   L 268.28598,439.4948   L 270.05102,439.4948   L 272.69858,439.4948   L 282.4063,439.4948   L 284.17134,439.4948   L 285.93638,439.4948   L 287.70142,439.4948   L 290.34898,439.4948   L 292.99654,439.4948   L 295.64409,439.4948   L 297.40913,439.4948   L 299.17417,439.4948   L 301.82173,439.4948   L 313.29449,439.4948   L 315.05953,439.4948   L 315.94205,441.25984   L 315.94205,443.02488   L 315.94205,444.78992   L 315.94205,446.55496   L 315.94205,448.32   L 315.94205,450.08504   L 315.94205,451.85008   L 315.94205,455.38016   L 315.94205,457.1452   L 315.94205,458.91024   L 315.94205,461.5578   L 315.94205,464.20535   L 315.94205,465.97039   L 315.94205,467.73543   L 315.94205,461.5578   L 315.94205,454.49764   L 315.94205,444.78992   L 315.94205,440.37732   L 315.94205,437.72976   L 315.94205,435.96472   L 315.94205,434.19969   L 315.94205,432.43465   L 315.94205,435.0822   L 315.94205,438.61228   L 315.94205,442.14236   L 315.94205,443.9074   L 315.94205,441.25984   L 315.94205,439.4948   L 315.94205,437.72976   L 315.94205,439.4948   L 315.94205,441.25984   L 315.94205,439.4948   L 317.70709,439.4948   L 319.47213,439.4948   L 322.11969,439.4948   L 324.76724,439.4948   L 327.4148,439.4948   L 329.17984,439.4948   L 330.94488,439.4948   L 333.59244,439.4948   L 336.24,439.4948   L 338.00504,439.4948   L 339.77008,439.4948   L 342.41764,439.4948   L 345.0652,439.4948   L 346.83024,439.4948   L 348.59528,439.4948   L 351.24283,439.4948   L 353.89039,439.4948   L 355.65543,439.4948   L 357.42047,439.4948   L 360.06803,439.4948   L 362.71559,439.4948   L 364.48063,439.4948   L 366.24567,439.4948   L 368.89323,439.4948   L 371.54079,439.4948   L 374.18835,439.4948   L 375.95339,439.4948   L 377.71843,439.4948   L 380.36598,439.4948   L 383.01354,439.4948   L 384.77858,439.4948   L 386.54362,439.4948   L 389.19118,439.4948   L 391.83874,439.4948   L 393.60378,439.4948   L 395.36882,439.4948   L 398.01638,439.4948   L 400.66394,439.4948   L 402.42898,439.4948   L 404.19402,439.4948   L 406.84157,439.4948   L 409.48913,439.4948   L 412.13669,439.4948   L 413.90173,439.4948   L 415.66677,439.4948   L 418.31433,439.4948   L 420.96189,439.4948   L 422.72693,439.4948   L 424.49197,439.4948   L 427.13953,439.4948   L 429.78709,439.4948   L 431.55213,439.4948   L 433.31717,439.4948   L 435.96472,439.4948   L 438.61228,439.4948   L 440.37732,439.4948   L 442.14236,439.4948   L 444.78992,439.4948   L 447.43748,439.4948   L 449.20252,439.4948   L 450.96756,439.4948   L 453.61512,439.4948   L 456.26268,439.4948   L 458.91024,439.4948   L 460.67528,439.4948   L 462.44031,439.4948   L 465.08787,439.4948   L 467.73543,439.4948   L 469.50047,439.4948   L 472.14803,439.4948   L 473.91307,439.4948   L 476.56063,439.4948   L 478.32567,439.4948   L 480.09071,439.4948   L 482.73827,439.4948   L 485.38583,439.4948   L 487.15087,439.4948   L 488.91591,439.4948   L 491.56346,439.4948   L 494.21102,439.4948   L 495.97606,439.4948   L 497.7411,439.4948   L 499.50614,439.4948   L 501.27118,439.4948   L 503.03622,439.4948   L 505.68378,439.4948   L 507.44882,439.4948   L 509.21386,439.4948   L 511.86142,439.4948   L 514.50898,439.4948   L 516.27402,439.4948   L 518.03906,439.4948   L 520.68661,439.4948   L 523.33417,439.4948   L 525.09921,439.4948   L 526.86425,439.4948   L 528.62929,439.4948   L 530.39433,439.4948   L 532.15937,439.4948   L 533.92441,439.4948   L 535.68945,439.4948   L 537.45449,439.4948   L 539.21953,439.4948   L 540.98457,439.4948   L 542.74961,439.4948   L 544.51465,439.4948   L 547.1622,439.4948   L 549.80976,439.4948   L 552.45732,439.4948   L 555.10488,439.4948   L 557.75244,439.4948   L 559.51748,439.4948   L 562.16504,439.4948   L 564.8126,439.4948   L 566.57764,439.4948   L 569.2252,439.4948   L 570.99024,439.4948   L 573.6378,439.4948   L 575.40283,439.4948   L 578.05039,439.4948   L 579.81543,439.4948   L 582.46299,439.4948   L 584.22803,439.4948   L 585.11055,437.72976   L 585.11055,435.96472   L 585.11055,433.31717   L 585.11055,428.90457   L 585.11055,422.72693   L 585.11055,414.78425   L 585.11055,406.84157   L 585.11055,399.78142   L 585.11055,390.95622   L 585.11055,377.71843   L 585.11055,364.48063   L 585.11055,340.6526   L 585.11055,318.58961   L 585.11055,296.52661   L 585.11055,287.70142   L 585.11055,273.5811   L 585.11055,271.81606   L 585.11055,270.05102   L 585.11055,268.28598   L 585.11055,270.05102   L 585.11055,271.81606   L 585.11055,274.46362   L 585.11055,276.22866   L 585.11055,278.87622   L 585.11055,281.52378   L 585.11055,284.17134   L 585.11055,285.93638   L 585.11055,287.70142   L 585.11055,290.34898   L 585.11055,292.99654   L 585.11055,298.29165   L 585.11055,303.58677   L 585.11055,313.29449   L 585.11055,325.64976   L 585.11055,336.24   L 585.11055,353.00787   L 585.11055,368.89323   L 585.11055,380.36598   L 585.11055,387.42614   L 585.11055,390.95622   L 585.11055,392.72126   L 585.11055,394.4863   L 585.11055,396.25134   L 585.11055,398.8989   L 585.11055,402.42898   L 585.11055,410.37165   L 585.11055,419.19685   L 585.11055,426.25701   L 585.11055,435.0822   L 585.11055,442.14236   L 585.11055,448.32   L 585.11055,453.61512   L 585.11055,458.91024   L 585.11055,463.32283   L 585.11055,466.85291   L 585.11055,468.61795   L 585.11055,461.5578   L 585.11055,453.61512   L 585.11055,444.78992   L 585.11055,440.37732   L 585.11055,436.84724   L 585.11055,435.0822   L 585.99307,433.31717   L 585.99307,436.84724   L 585.99307,441.25984   L 585.99307,443.02488   L 585.99307,441.25984   L 585.99307,438.61228   L 585.99307,441.25984   L 585.99307,439.4948   L 587.75811,439.4948   L 590.40567,439.4948   L 593.05323,439.4948   L 594.81827,439.4948   L 596.58331,439.4948   L 599.23087,439.4948   L 601.87843,439.4948   L 603.64346,439.4948   L 605.4085,439.4948   L 608.05606,439.4948   L 610.70362,439.4948   L 612.46866,439.4948   L 614.2337,439.4948   L 616.88126,439.4948   L 619.52882,439.4948   L 622.17638,439.4948   L 623.94142,439.4948   L 625.70646,439.4948   L 628.35402,439.4948   L 631.00157,439.4948   L 632.76661,439.4948   L 634.53165,439.4948   L 637.17921,439.4948   L 639.82677,439.4948   L 641.59181,439.4948   L 643.35685,439.4948   L 646.00441,439.4948   L 648.65197,439.4948   L 650.41701,439.4948   L 652.18205,439.4948   L 654.82961,439.4948   L 657.47717,439.4948   L 660.12472,439.4948   L 661.88976,439.4948   L 663.6548,439.4948   L 666.30236,439.4948   L 668.94992,439.4948   L 670.71496,439.4948   L 672.48,439.4948   L 675.12756,439.4948   L 677.77512,439.4948   L 679.54016,439.4948   L 681.3052,439.4948   L 683.95276,439.4948   L 686.60031,439.4948   L 688.36535,439.4948   L 690.13039,439.4948   L 692.77795,439.4948   L 695.42551,439.4948   L 697.19055,439.4948   L 698.95559,439.4948   L 701.60315,439.4948   L 704.25071,439.4948   L 706.89827,439.4948   L 708.66331,439.4948   L 710.42835,439.4948   L 713.07591,439.4948   L 715.72346,439.4948   L 717.4885,439.4948   L 719.25354,439.4948   L 721.9011,439.4948   L 724.54866,439.4948   L 726.3137,439.4948   L 728.96126,439.4948   L 730.7263,439.4948   L 733.37386,439.4948   L 735.1389,439.4948   L 736.90394,439.4948   L 739.5515,439.4948   L 742.19906,439.4948   L 743.96409,439.4948   L 745.72913,439.4948   L 748.37669,439.4948   L 751.02425,439.4948   L 753.67181,439.4948   L 755.43685,439.4948   L 758.08441,439.4948   L 759.84945,439.4948   L 762.49701,439.4948   L 764.26205,439.4948   L 766.02709,439.4948   L 768.67465,439.4948   L 771.3222,439.4948   L 773.08724,439.4948   L 774.85228,439.4948   L 777.49984,439.4948   L 780.1474,439.4948   L 781.91244,439.4948   L 783.67748,439.4948   L 785.44252,439.4948   L 787.20756,439.4948   L 788.9726,439.4948   L 790.73764,439.4948   L 792.50268,439.4948   L 795.15024,439.4948   L 797.7978,439.4948   L 800.44535,439.4948   L 802.21039,439.4948   L 803.97543,439.4948   L 806.62299,439.4948   L 809.27055,439.4948   L 811.03559,439.4948   L 812.80063,439.4948   L 822.50835,439.4948   L 824.27339,439.4948   L 826.92094,439.4948   L 828.68598,439.4948   L 830.45102,439.4948   L 833.09858,439.4948   L 835.74614,439.4948   L 838.3937,439.4948   L 840.15874,439.4948   L 841.92378,439.4948   L 851.6315,439.4948   L 853.39654,439.4948   L 855.16157,439.4948   L 855.16157,441.25984   L 855.16157,443.02488   L 855.16157,444.78992   L 855.16157,446.55496   L 855.16157,448.32   L 855.16157,450.08504   L 855.16157,451.85008   L 855.16157,455.38016   L 855.16157,457.1452   L 855.16157,458.91024   L 855.16157,461.5578   L 855.16157,464.20535   L 855.16157,465.97039   L 855.16157,462.44031   L 855.16157,454.49764   L 855.16157,443.02488   L 855.16157,439.4948   L 855.16157,436.84724   L 855.16157,435.0822   L 855.16157,433.31717   L 855.16157,435.0822   L 855.16157,438.61228   L 855.16157,442.14236   L 855.16157,443.9074   L 855.16157,441.25984   L 855.16157,438.61228   L 855.16157,440.37732   L 856.92661,439.4948   L 858.69165,439.4948   L 861.33921,439.4948   L 863.98677,439.4948   L 865.75181,439.4948   L 867.51685,439.4948   L 870.16441,439.4948   L 872.81197,439.4948   L 874.57701,439.4948   L 876.34205,439.4948   L 878.98961,439.4948   L 881.63717,439.4948   L 883.4022,439.4948   L 885.16724,439.4948   L 887.8148,439.4948   L 890.46236,439.4948   L 893.10992,439.4948   L 894.87496,439.4948   L 896.64,439.4948   L 899.28756,439.4948   L 901.93512,439.4948   L 903.70016,439.4948   L 905.4652,439.4948   L 908.11276,439.4948   L 910.76031,439.4948   L 912.52535,439.4948   L 914.29039,439.4948   L 916.93795,439.4948   L 919.58551,439.4948   L 921.35055,439.4948   L 923.11559,439.4948   L 925.76315,439.4948   L 928.41071,439.4948   L 930.17575,439.4948   L 931.94079,439.4948   L 934.58835,439.4948   L 937.23591,439.4948   L 939.88346,439.4948   L 941.6485,439.4948   L 943.41354,439.4948   L 946.0611,439.4948   L 948.70866,439.4948   L 950.4737,439.4948   L 952.23874,439.4948   L 954.8863,439.4948   L 957.53386,439.4948   L 959.2989,439.4948   L 961.06394,439.4948   L 963.7115,439.4948   L 966.35906,439.4948   L 968.12409,439.4948   L 969.88913,439.4948   L 972.53669,439.4948   L 975.18425,439.4948   L 976.94929,439.4948   L 978.71433,439.4948   L 981.36189,439.4948   L 984.00945,439.4948   L 986.65701,439.4948   L 988.42205,439.4948   L 990.18709,439.4948   L 992.83465,439.4948   L 995.4822,439.4948   L 997.24724,439.4948   L 999.01228,439.4948   L 1001.6598,439.4948   L 1004.3074,439.4948   L 1006.0724,439.4948   L 1007.8375,439.4948   L 1010.485,439.4948   L 1013.1326,439.4948   L 1014.8976,439.4948   L 1016.6627,439.4948   L 1019.3102,439.4948   L 1021.9578,439.4948   L 1023.7228,439.4948   L 1025.4879,439.4948   L 1028.1354,439.4948   L 1031.6655,439.4948   L 1033.4306,439.4948   L 1035.1956,439.4948   L 1036.9606,439.4948   L 1039.6082,439.4948   L 1042.2557,439.4948   L 1044.0208,439.4948   L 1045.7858,439.4948   L 1048.4334,439.4948   L 1051.0809,439.4948   L 1052.846,439.4948   L 1054.611,439.4948   L 1057.2586,439.4948   L 1059.0236,439.4948   L 1060.7887,439.4948   L 1062.5537,439.4948   L 1064.3187,439.4948   L 1066.0838,439.4948   L 1068.7313,439.4948   L 1071.3789,439.4948   L 1073.1439,439.4948   L 1074.909,439.4948   L 1077.5565,439.4948   L 1080.2041,439.4948   L 1081.9691,439.4948   L 1083.7342,439.4948   L 1086.3817,439.4948   L 1088.1468,439.4948   L 1089.9118,439.4948   L 1092.5594,439.4948   L 1094.3244,439.4948   L 1096.0894,439.4948   L 1097.8545,439.4948   L 1099.6195,439.4948   L 1101.3846,439.4948   L 1104.0321,439.4948   L 1106.6797,439.4948   L 1108.4447,439.4948   L 1110.2098,439.4948   L 1112.8573,439.4948   L 1115.5049,439.4948   L 1121.6825,439.4948   L 1123.4476,439.4948   L 1125.2126,439.4948   L 1125.2126,437.72976   L 1125.2126,435.96472   L 1125.2126,433.31717   L 1125.2126,428.02205   L 1125.2126,421.84441   L 1125.2126,414.78425   L 1125.2126,405.95906   L 1125.2126,398.8989   L 1125.2126,390.0737   L 1125.2126,376.83591   L 1125.2126,363.59811   L 1125.2126,338.00504   L 1125.2126,312.41197   L 1125.2126,285.05386   L 1125.2126,272.69858   L 1125.2126,268.28598   L 1125.2126,270.05102   L 1125.2126,271.81606   L 1125.2126,274.46362   L 1125.2126,276.22866   L 1125.2126,278.87622   L 1125.2126,281.52378   L 1125.2126,283.28882   L 1125.2126,285.93638   L 1125.2126,287.70142   L 1125.2126,289.46646   L 1125.2126,292.11402   L 1125.2126,297.40913   L 1125.2126,302.70425   L 1125.2126,312.41197   L 1125.2126,323.88472   L 1125.2126,335.35748   L 1125.2126,348.59528   L 1125.2126,366.24567   L 1125.2126,378.60094   L 1125.2126,386.54362   L 1125.2126,390.0737   L 1125.2126,392.72126   L 1125.2126,394.4863   L 1125.2126,396.25134   L 1125.2126,398.8989   L 1125.2126,401.54646   L 1125.2126,408.60661   L 1125.2126,417.43181   L 1125.2126,426.25701   L 1125.2126,433.31717   L 1125.2126,438.61228   L 1125.2126,443.9074   L 1125.2126,450.08504   L 1125.2126,457.1452   L 1125.2126,462.44031   L 1125.2126,465.97039   L 1125.2126,467.73543   L 1125.2126,458.02772   L 1125.2126,448.32   L 1125.2126,442.14236   L 1125.2126,437.72976   L 1125.2126,435.96472   L 1125.2126,434.19969   L 1125.2126,432.43465   L 1125.2126,434.19969   L 1125.2126,438.61228   L 1125.2126,442.14236   L 1125.2126,443.9074   L 1125.2126,441.25984   L 1125.2126,438.61228   L 1125.2126,441.25984   L 1125.2126,439.4948   L 1126.9776,439.4948   L 1128.7427,439.4948   L 1131.3902,439.4948   L 1134.0378,439.4948   L 1136.6854,439.4948   L 1138.4504,439.4948   L 1140.2154,439.4948   L 1142.863,439.4948   L 1145.5106,439.4948   L 1148.1581,439.4948   L 1149.9231,439.4948   L 1151.6882,439.4948   L 1154.3357,439.4948   L 1156.9833,439.4948   L 1158.7483,439.4948   L 1160.5134,439.4948   L 1163.1609,439.4948   L 1165.8085,439.4948   L 1167.5735,439.4948   L 1169.3386,439.4948   L 1171.9861,439.4948   L 1174.6337,439.4948   L 1176.3987,439.4948   L 1178.1638,439.4948   L 1180.8113,439.4948   L 1183.4589,439.4948   L 1185.2239,439.4948   L 1186.989,439.4948   L 1189.6365,439.4948   L 1192.2841,439.4948   L 1194.9317,439.4948   L 1196.6967,439.4948   L 1198.4617,439.4948   L 1201.1093,439.4948   L 1203.7569,439.4948   L 1205.5219,439.4948   L 1207.2869,439.4948   L 1209.9345,439.4948   L 1212.582,439.4948   L 1214.3471,439.4948   L 1216.1121,439.4948   L 1218.7597,439.4948   L 1221.4072,439.4948   L 1223.1723,439.4948   L 1224.9373,439.4948   L 1227.5849,439.4948   L 1230.2324,439.4948   L 1232.88,439.4948   L 1234.645,439.4948   L 1236.4101,439.4948   L 1239.0576,439.4948   L 1241.7052,439.4948   L 1243.4702,439.4948   L 1245.2353,439.4948   L 1247.8828,439.4948   L 1250.5304,439.4948   L 1252.2954,439.4948   L 1254.0605,439.4948   L 1256.708,439.4948   L 1259.3556,439.4948   L 1261.1206,439.4948   L 1262.8857,439.4948   L 1265.5332,439.4948   L 1268.1808,439.4948   L 1271.7109,439.4948   L 1274.3584,439.4948   L 1277.006,439.4948   L 1279.6535,439.4948   L 1281.4186,439.4948   L 1283.1836,439.4948   L 1285.8312,439.4948   L 1288.4787,439.4948   L 1290.2438,439.4948   L 1292.0088,439.4948   L 1294.6564,439.4948   L 1297.3039,439.4948   L 1299.069,439.4948   L 1301.7165,439.4948   L 1303.4816,439.4948   L 1306.1291,439.4948   L 1307.8942,439.4948   L 1309.6592,439.4948   L 1312.3068,439.4948   L 1314.9543,439.4948   L 1316.7194,439.4948   L 1318.4844,439.4948   L 1321.132,439.4948   L 1323.7795,439.4948   L 1326.4271,439.4948   L 1328.1921,439.4948   L 1329.9572,439.4948   L 1331.7222,439.4948   L 1333.4872,439.4948   L 1335.2523,439.4948   L 1337.0173,439.4948   L 1338.7824,439.4948   L 1340.5474,439.4948  "
     id="path255" />
  <text
     xml:space="preserve"
     style="font-size:15.000000px;font-style:normal;font-variant:normal;font-weight:700;font-stretch:Normal;line-height:125.000000%;letter-spacing:0px;word-spacing:0px;fill:#000000;fill-opacity:1;stroke:none;font-family:Arial;text-align:start;text-anchor:start;"
     transform="matrix(1.000000,-0.000000,0.000000,1.000000,692.777953,0.000000)"
     x="-27.092285"
     y="13.579102"
     id="text261"><tspan
       sodipodi:role="line"
       x="-27.092285"
       y="13.579102"
       id="tspan259"><tspan
         dx="0.000000"
         dy="0.000000"
         style="fill:#000000;font-size:15.000000px;font-style:normal;font-variant:normal;font-weight:700;font-stretch:Normal;font-family:Arial;"
         id="tspan257">V(n001)</tspan></tspan></text>
  <path
     style="fill:none;stroke:#0000ff;stroke-width:1.683;stroke-linecap:round;stroke-linejoin:round;stroke-miterlimit:4;stroke-dasharray:none;stroke-opacity:1"
     d="  M 45.891024,217.98236   L 45.891024,216.21732   L 45.891024,214.45228   L 45.891024,211.80472   L 45.891024,209.15717   L 45.891024,206.50961   L 45.891024,202.97953   L 45.891024,199.44945   L 45.891024,195.03685   L 45.891024,189.74173   L 45.891024,184.44661   L 45.891024,178.26898   L 45.891024,172.09134   L 45.891024,165.9137   L 45.891024,158.85354   L 45.891024,151.79339   L 45.891024,145.61575   L 45.891024,138.55559   L 45.891024,127.08283   L 45.891024,116.4926   L 45.891024,97.959685   L 45.891024,71.484094   L 45.891024,52.951181   L 45.891024,38.830866   L 45.891024,37.065827   L 47.656063,37.065827   L 49.421102,37.065827   L 51.186142,37.065827   L 53.833701,37.065827   L 56.48126,37.065827   L 59.128819,37.065827   L 60.893858,37.065827   L 62.658898,37.065827   L 65.306457,37.065827   L 67.954016,37.065827   L 70.601575,37.065827   L 72.366614,37.065827   L 74.131654,37.065827   L 76.779213,37.065827   L 79.426772,37.065827   L 81.191811,37.065827   L 82.95685,37.065827   L 85.604409,37.065827   L 88.251969,37.065827   L 90.017008,37.065827   L 91.782047,37.065827   L 94.429606,37.065827   L 97.077165,37.065827   L 98.842205,37.065827   L 100.60724,37.065827   L 103.2548,37.065827   L 105.90236,37.065827   L 107.6674,37.065827   L 109.43244,37.065827   L 112.08,37.065827   L 114.72756,37.065827   L 117.37512,37.065827   L 119.14016,37.065827   L 120.9052,37.065827   L 123.55276,37.065827   L 126.20031,37.065827   L 127.96535,37.065827   L 129.73039,37.065827   L 132.37795,37.065827   L 135.02551,37.065827   L 136.79055,37.065827   L 138.55559,37.065827   L 141.20315,37.065827   L 143.85071,37.065827   L 145.61575,37.065827   L 147.38079,37.065827   L 150.02835,37.065827   L 152.67591,37.065827   L 155.32346,37.065827   L 157.0885,37.065827   L 158.85354,37.065827   L 161.5011,37.065827   L 164.14866,37.065827   L 165.9137,37.065827   L 167.67874,37.065827   L 170.3263,37.065827   L 172.97386,37.065827   L 174.7389,37.065827   L 176.50394,37.065827   L 179.1515,37.065827   L 181.79906,37.065827   L 183.56409,37.065827   L 185.32913,37.065827   L 187.97669,37.065827   L 190.62425,37.065827   L 192.38929,37.065827   L 194.15433,37.065827   L 196.80189,37.065827   L 199.44945,37.065827   L 202.09701,37.065827   L 203.86205,37.065827   L 205.62709,37.065827   L 208.27465,37.065827   L 210.9222,37.065827   L 212.68724,37.065827   L 214.45228,37.065827   L 217.98236,37.065827   L 219.7474,37.065827   L 221.51244,37.065827   L 223.27748,37.065827   L 225.92504,37.065827   L 228.5726,37.065827   L 230.33764,37.065827   L 232.10268,37.065827   L 234.75024,37.065827   L 237.3978,37.065827   L 239.16283,37.065827   L 240.92787,37.065827   L 243.57543,37.065827   L 245.34047,37.065827   L 247.10551,37.065827   L 248.87055,37.065827   L 250.63559,37.065827   L 252.40063,37.065827   L 255.04819,37.065827   L 257.69575,37.065827   L 259.46079,37.065827   L 261.22583,37.065827   L 263.87339,37.065827   L 266.52094,37.065827   L 268.28598,37.065827   L 270.05102,37.065827   L 272.69858,37.065827   L 282.4063,37.065827   L 284.17134,37.065827   L 285.93638,37.065827   L 287.70142,37.065827   L 290.34898,37.065827   L 292.99654,37.065827   L 295.64409,37.065827   L 297.40913,37.065827   L 299.17417,37.065827   L 301.82173,37.065827   L 313.29449,37.065827   L 315.05953,37.065827   L 315.94205,38.830866   L 315.94205,40.595906   L 315.94205,42.360945   L 315.94205,45.008504   L 315.94205,47.656063   L 315.94205,50.303622   L 315.94205,53.833701   L 315.94205,57.36378   L 315.94205,62.658898   L 315.94205,70.601575   L 315.94205,78.544252   L 315.94205,87.369449   L 315.94205,97.077165   L 315.94205,116.4926   L 315.94205,139.43811   L 315.94205,160.61858   L 315.94205,172.97386   L 315.94205,181.79906   L 315.94205,190.62425   L 315.94205,195.91937   L 315.94205,200.33197   L 315.94205,205.62709   L 315.94205,210.03969   L 315.94205,216.21732   L 315.94205,217.98236   L 317.70709,217.98236   L 319.47213,217.98236   L 322.11969,217.98236   L 324.76724,217.98236   L 327.4148,217.98236   L 329.17984,217.98236   L 330.94488,217.98236   L 333.59244,217.98236   L 336.24,217.98236   L 338.00504,217.98236   L 339.77008,217.98236   L 342.41764,217.98236   L 345.0652,217.98236   L 346.83024,217.98236   L 348.59528,217.98236   L 351.24283,217.98236   L 353.89039,217.98236   L 355.65543,217.98236   L 357.42047,217.98236   L 360.06803,217.98236   L 362.71559,217.98236   L 364.48063,217.98236   L 366.24567,217.98236   L 368.89323,217.98236   L 371.54079,217.98236   L 374.18835,217.98236   L 375.95339,217.98236   L 377.71843,217.98236   L 380.36598,217.98236   L 383.01354,217.98236   L 384.77858,217.98236   L 386.54362,217.98236   L 389.19118,217.98236   L 391.83874,217.98236   L 393.60378,217.98236   L 395.36882,217.98236   L 398.01638,217.98236   L 400.66394,217.98236   L 402.42898,217.98236   L 404.19402,217.98236   L 406.84157,217.98236   L 409.48913,217.98236   L 412.13669,217.98236   L 413.90173,217.98236   L 415.66677,217.98236   L 418.31433,217.98236   L 420.96189,217.98236   L 422.72693,217.98236   L 424.49197,217.98236   L 427.13953,217.98236   L 429.78709,217.98236   L 431.55213,217.98236   L 433.31717,217.98236   L 435.96472,217.98236   L 438.61228,217.98236   L 440.37732,217.98236   L 442.14236,217.98236   L 444.78992,217.98236   L 447.43748,217.98236   L 449.20252,217.98236   L 450.96756,217.98236   L 453.61512,217.98236   L 456.26268,217.98236   L 458.91024,217.98236   L 460.67528,217.98236   L 462.44031,217.98236   L 465.08787,217.98236   L 467.73543,217.98236   L 469.50047,217.98236   L 472.14803,217.98236   L 473.91307,217.98236   L 476.56063,217.98236   L 478.32567,217.98236   L 480.09071,217.98236   L 482.73827,217.98236   L 485.38583,217.98236   L 487.15087,217.98236   L 488.91591,217.98236   L 491.56346,217.98236   L 494.21102,217.98236   L 495.97606,217.98236   L 497.7411,217.98236   L 499.50614,217.98236   L 501.27118,217.98236   L 503.03622,217.98236   L 505.68378,217.98236   L 507.44882,217.98236   L 509.21386,217.98236   L 511.86142,217.98236   L 514.50898,217.98236   L 516.27402,217.98236   L 518.03906,217.98236   L 520.68661,217.98236   L 523.33417,217.98236   L 525.09921,217.98236   L 526.86425,217.98236   L 528.62929,217.98236   L 530.39433,217.98236   L 532.15937,217.98236   L 533.92441,217.98236   L 535.68945,217.98236   L 537.45449,217.98236   L 539.21953,217.98236   L 540.98457,217.98236   L 542.74961,217.98236   L 544.51465,217.98236   L 547.1622,217.98236   L 549.80976,217.98236   L 552.45732,217.98236   L 555.10488,217.98236   L 557.75244,217.98236   L 559.51748,217.98236   L 562.16504,217.98236   L 564.8126,217.98236   L 566.57764,217.98236   L 569.2252,217.98236   L 570.99024,217.98236   L 573.6378,217.98236   L 575.40283,217.98236   L 578.05039,217.98236   L 579.81543,217.98236   L 582.46299,217.98236   L 584.22803,217.98236   L 585.11055,216.21732   L 585.11055,214.45228   L 585.11055,212.68724   L 585.11055,210.9222   L 585.11055,208.27465   L 585.11055,204.74457   L 585.11055,201.21449   L 585.11055,197.68441   L 585.11055,192.38929   L 585.11055,186.21165   L 585.11055,180.03402   L 585.11055,172.97386   L 585.11055,165.9137   L 585.11055,158.85354   L 585.11055,152.67591   L 585.11055,146.49827   L 585.11055,139.43811   L 585.11055,129.73039   L 585.11055,119.14016   L 585.11055,100.60724   L 585.11055,82.95685   L 585.11055,64.423937   L 585.11055,56.48126   L 585.11055,44.125984   L 585.11055,42.360945   L 585.11055,40.595906   L 585.11055,38.830866   L 585.11055,37.065827   L 586.87559,37.065827   L 588.64063,37.065827   L 590.40567,37.065827   L 593.05323,37.065827   L 594.81827,37.065827   L 596.58331,37.065827   L 599.23087,37.065827   L 601.87843,37.065827   L 603.64346,37.065827   L 605.4085,37.065827   L 608.05606,37.065827   L 610.70362,37.065827   L 612.46866,37.065827   L 614.2337,37.065827   L 616.88126,37.065827   L 619.52882,37.065827   L 622.17638,37.065827   L 623.94142,37.065827   L 625.70646,37.065827   L 628.35402,37.065827   L 631.00157,37.065827   L 632.76661,37.065827   L 634.53165,37.065827   L 637.17921,37.065827   L 639.82677,37.065827   L 641.59181,37.065827   L 643.35685,37.065827   L 646.00441,37.065827   L 648.65197,37.065827   L 650.41701,37.065827   L 652.18205,37.065827   L 654.82961,37.065827   L 657.47717,37.065827   L 660.12472,37.065827   L 661.88976,37.065827   L 663.6548,37.065827   L 666.30236,37.065827   L 668.94992,37.065827   L 670.71496,37.065827   L 672.48,37.065827   L 675.12756,37.065827   L 677.77512,37.065827   L 679.54016,37.065827   L 681.3052,37.065827   L 683.95276,37.065827   L 686.60031,37.065827   L 688.36535,37.065827   L 690.13039,37.065827   L 692.77795,37.065827   L 695.42551,37.065827   L 697.19055,37.065827   L 698.95559,37.065827   L 701.60315,37.065827   L 704.25071,37.065827   L 706.89827,37.065827   L 708.66331,37.065827   L 710.42835,37.065827   L 713.07591,37.065827   L 715.72346,37.065827   L 717.4885,37.065827   L 719.25354,37.065827   L 721.9011,37.065827   L 724.54866,37.065827   L 726.3137,37.065827   L 728.96126,37.065827   L 730.7263,37.065827   L 733.37386,37.065827   L 735.1389,37.065827   L 736.90394,37.065827   L 739.5515,37.065827   L 742.19906,37.065827   L 743.96409,37.065827   L 745.72913,37.065827   L 748.37669,37.065827   L 751.02425,37.065827   L 753.67181,37.065827   L 755.43685,37.065827   L 758.08441,37.065827   L 759.84945,37.065827   L 762.49701,37.065827   L 764.26205,37.065827   L 766.02709,37.065827   L 768.67465,37.065827   L 771.3222,37.065827   L 773.08724,37.065827   L 774.85228,37.065827   L 777.49984,37.065827   L 780.1474,37.065827   L 781.91244,37.065827   L 783.67748,37.065827   L 785.44252,37.065827   L 787.20756,37.065827   L 788.9726,37.065827   L 790.73764,37.065827   L 792.50268,37.065827   L 795.15024,37.065827   L 797.7978,37.065827   L 800.44535,37.065827   L 802.21039,37.065827   L 803.97543,37.065827   L 806.62299,37.065827   L 809.27055,37.065827   L 811.03559,37.065827   L 812.80063,37.065827   L 822.50835,37.065827   L 824.27339,37.065827   L 826.92094,37.065827   L 828.68598,37.065827   L 830.45102,37.065827   L 833.09858,37.065827   L 835.74614,37.065827   L 838.3937,37.065827   L 840.15874,37.065827   L 841.92378,37.065827   L 851.6315,37.065827   L 853.39654,37.065827   L 855.16157,37.065827   L 855.16157,38.830866   L 855.16157,40.595906   L 855.16157,43.243465   L 855.16157,46.773543   L 855.16157,49.421102   L 855.16157,52.951181   L 855.16157,56.48126   L 855.16157,60.893858   L 855.16157,67.954016   L 855.16157,74.131654   L 855.16157,82.074331   L 855.16157,90.899528   L 855.16157,105.01984   L 855.16157,131.49543   L 855.16157,157.97102   L 855.16157,169.44378   L 855.16157,178.26898   L 855.16157,186.21165   L 855.16157,194.15433   L 855.16157,199.44945   L 855.16157,203.86205   L 855.16157,210.03969   L 855.16157,216.21732   L 855.16157,217.98236   L 856.92661,217.98236   L 858.69165,217.98236   L 861.33921,217.98236   L 863.98677,217.98236   L 865.75181,217.98236   L 867.51685,217.98236   L 870.16441,217.98236   L 872.81197,217.98236   L 874.57701,217.98236   L 876.34205,217.98236   L 878.98961,217.98236   L 881.63717,217.98236   L 883.4022,217.98236   L 885.16724,217.98236   L 887.8148,217.98236   L 890.46236,217.98236   L 893.10992,217.98236   L 894.87496,217.98236   L 896.64,217.98236   L 899.28756,217.98236   L 901.93512,217.98236   L 903.70016,217.98236   L 905.4652,217.98236   L 908.11276,217.98236   L 910.76031,217.98236   L 912.52535,217.98236   L 914.29039,217.98236   L 916.93795,217.98236   L 919.58551,217.98236   L 921.35055,217.98236   L 923.11559,217.98236   L 925.76315,217.98236   L 928.41071,217.98236   L 930.17575,217.98236   L 931.94079,217.98236   L 934.58835,217.98236   L 937.23591,217.98236   L 939.88346,217.98236   L 941.6485,217.98236   L 943.41354,217.98236   L 946.0611,217.98236   L 948.70866,217.98236   L 950.4737,217.98236   L 952.23874,217.98236   L 954.8863,217.98236   L 957.53386,217.98236   L 959.2989,217.98236   L 961.06394,217.98236   L 963.7115,217.98236   L 966.35906,217.98236   L 968.12409,217.98236   L 969.88913,217.98236   L 972.53669,217.98236   L 975.18425,217.98236   L 976.94929,217.98236   L 978.71433,217.98236   L 981.36189,217.98236   L 984.00945,217.98236   L 986.65701,217.98236   L 988.42205,217.98236   L 990.18709,217.98236   L 992.83465,217.98236   L 995.4822,217.98236   L 997.24724,217.98236   L 999.01228,217.98236   L 1001.6598,217.98236   L 1004.3074,217.98236   L 1006.0724,217.98236   L 1007.8375,217.98236   L 1010.485,217.98236   L 1013.1326,217.98236   L 1014.8976,217.98236   L 1016.6627,217.98236   L 1019.3102,217.98236   L 1021.9578,217.98236   L 1023.7228,217.98236   L 1025.4879,217.98236   L 1028.1354,217.98236   L 1031.6655,217.98236   L 1033.4306,217.98236   L 1035.1956,217.98236   L 1036.9606,217.98236   L 1039.6082,217.98236   L 1042.2557,217.98236   L 1044.0208,217.98236   L 1045.7858,217.98236   L 1048.4334,217.98236   L 1051.0809,217.98236   L 1052.846,217.98236   L 1054.611,217.98236   L 1057.2586,217.98236   L 1059.0236,217.98236   L 1060.7887,217.98236   L 1062.5537,217.98236   L 1064.3187,217.98236   L 1066.0838,217.98236   L 1068.7313,217.98236   L 1071.3789,217.98236   L 1073.1439,217.98236   L 1074.909,217.98236   L 1077.5565,217.98236   L 1080.2041,217.98236   L 1081.9691,217.98236   L 1083.7342,217.98236   L 1086.3817,217.98236   L 1088.1468,217.98236   L 1089.9118,217.98236   L 1092.5594,217.98236   L 1094.3244,217.98236   L 1096.0894,217.98236   L 1097.8545,217.98236   L 1099.6195,217.98236   L 1101.3846,217.98236   L 1104.0321,217.98236   L 1106.6797,217.98236   L 1108.4447,217.98236   L 1110.2098,217.98236   L 1112.8573,217.98236   L 1115.5049,217.98236   L 1121.6825,217.98236   L 1123.4476,217.98236   L 1125.2126,217.98236   L 1125.2126,216.21732   L 1125.2126,214.45228   L 1125.2126,212.68724   L 1125.2126,210.9222   L 1125.2126,208.27465   L 1125.2126,204.74457   L 1125.2126,200.33197   L 1125.2126,196.80189   L 1125.2126,192.38929   L 1125.2126,185.32913   L 1125.2126,179.1515   L 1125.2126,172.09134   L 1125.2126,165.9137   L 1125.2126,158.85354   L 1125.2126,151.79339   L 1125.2126,145.61575   L 1125.2126,138.55559   L 1125.2126,128.84787   L 1125.2126,119.14016   L 1125.2126,98.842205   L 1125.2126,78.544252   L 1125.2126,53.833701   L 1125.2126,42.360945   L 1125.2126,38.830866   L 1125.2126,37.065827   L 1126.9776,37.065827   L 1128.7427,37.065827   L 1131.3902,37.065827   L 1134.0378,37.065827   L 1136.6854,37.065827   L 1138.4504,37.065827   L 1140.2154,37.065827   L 1142.863,37.065827   L 1145.5106,37.065827   L 1148.1581,37.065827   L 1149.9231,37.065827   L 1151.6882,37.065827   L 1154.3357,37.065827   L 1156.9833,37.065827   L 1158.7483,37.065827   L 1160.5134,37.065827   L 1163.1609,37.065827   L 1165.8085,37.065827   L 1167.5735,37.065827   L 1169.3386,37.065827   L 1171.9861,37.065827   L 1174.6337,37.065827   L 1176.3987,37.065827   L 1178.1638,37.065827   L 1180.8113,37.065827   L 1183.4589,37.065827   L 1185.2239,37.065827   L 1186.989,37.065827   L 1189.6365,37.065827   L 1192.2841,37.065827   L 1194.9317,37.065827   L 1196.6967,37.065827   L 1198.4617,37.065827   L 1201.1093,37.065827   L 1203.7569,37.065827   L 1205.5219,37.065827   L 1207.2869,37.065827   L 1209.9345,37.065827   L 1212.582,37.065827   L 1214.3471,37.065827   L 1216.1121,37.065827   L 1218.7597,37.065827   L 1221.4072,37.065827   L 1223.1723,37.065827   L 1224.9373,37.065827   L 1227.5849,37.065827   L 1230.2324,37.065827   L 1232.88,37.065827   L 1234.645,37.065827   L 1236.4101,37.065827   L 1239.0576,37.065827   L 1241.7052,37.065827   L 1243.4702,37.065827   L 1245.2353,37.065827   L 1247.8828,37.065827   L 1250.5304,37.065827   L 1252.2954,37.065827   L 1254.0605,37.065827   L 1256.708,37.065827   L 1259.3556,37.065827   L 1261.1206,37.065827   L 1262.8857,37.065827   L 1265.5332,37.065827   L 1268.1808,37.065827   L 1271.7109,37.065827   L 1274.3584,37.065827   L 1277.006,37.065827   L 1279.6535,37.065827   L 1281.4186,37.065827   L 1283.1836,37.065827   L 1285.8312,37.065827   L 1288.4787,37.065827   L 1290.2438,37.065827   L 1292.0088,37.065827   L 1294.6564,37.065827   L 1297.3039,37.065827   L 1299.069,37.065827   L 1301.7165,37.065827   L 1303.4816,37.065827   L 1306.1291,37.065827   L 1307.8942,37.065827   L 1309.6592,37.065827   L 1312.3068,37.065827   L 1314.9543,37.065827   L 1316.7194,37.065827   L 1318.4844,37.065827   L 1321.132,37.065827   L 1323.7795,37.065827   L 1326.4271,37.065827   L 1328.1921,37.065827   L 1329.9572,37.065827   L 1331.7222,37.065827   L 1333.4872,37.065827   L 1335.2523,37.065827   L 1337.0173,37.065827   L 1338.7824,37.065827   L 1340.5474,37.065827  "
     id="path263" />
</svg>
